<?xml version="1.0" standalone="no"?>
<!DOCTYPE svg PUBLIC "-//W3C//DTD SVG 20010904//EN"
 "http://www.w3.org/TR/2001/REC-SVG-20010904/DTD/svg10.dtd">
<svg version="1.0" xmlns="http://www.w3.org/2000/svg"
 width="329.000000pt" height="329.000000pt" viewBox="0 0 329.000000 329.000000"
 preserveAspectRatio="xMidYMid meet">
<metadata>
Created by potrace 1.14, written by Peter Selinger 2001-2017
</metadata>
<g transform="translate(0.000000,329.000000) scale(0.100000,-0.100000)"
fill="#000000" stroke="none">
<path d="M1976 3083 c-1 -1 -61 -3 -134 -4 -73 0 -134 -4 -136 -8 -5 -7 -207
-6 -361 3 -88 4 -95 1 -95 -51 l0 -33 -124 0 c-138 0 -176 -9 -176 -40 0 -19
-6 -20 -215 -20 -158 0 -224 -4 -248 -13 l-32 -14 1 -849 c1 -549 6 -858 12
-874 6 -14 22 -40 36 -59 14 -19 26 -39 26 -44 0 -19 131 -269 186 -354 115
-179 233 -314 379 -435 95 -78 272 -195 372 -245 l71 -36 104 58 c112 63 190
114 283 184 84 64 88 68 167 146 164 162 319 392 424 629 20 45 44 90 54 101
45 52 44 23 45 959 1 624 -2 889 -9 892 -6 2 -74 5 -150 7 l-140 2 -4 35 c-8
72 -6 71 -178 68 -86 -2 -157 -4 -158 -5z"/>
</g>
</svg>
